<svg width="24" height="24" viewBox="0 0 24 24" fill="none" xmlns="http://www.w3.org/2000/svg">
<path d="M6.00002 16.938V19.059L5.05902 20H2.93902L6.00002 16.938ZM22.002 14.435V16.557L18.56 20H17.994V18.443L22.002 14.435ZM8.75002 14H15.245C15.6844 14 16.1076 14.1653 16.4307 14.463C16.7538 14.7608 16.9531 15.1691 16.989 15.607L16.995 15.75V20H7.00002V15.75C7.00004 15.3108 7.16519 14.8877 7.4627 14.5646C7.76021 14.2415 8.16832 14.0421 8.60602 14.006L8.75002 14ZM8.02102 10.416C8.08102 10.995 8.26402 11.536 8.54402 12.016L2.00002 18.56V16.438L8.02102 10.416ZM22.001 9.932V12.055L17.994 16.065V15.75L17.99 15.582C17.9636 15.1412 17.8308 14.7133 17.603 14.335L22.002 9.932H22.001ZM12.058 4L2.00002 14.06V11.939L9.93602 4H12.056H12.058ZM22.003 5.432V7.555L16.336 13.225C16.063 13.1066 15.7725 13.0337 15.476 13.009L15.246 13H14.646C14.9894 12.6973 15.2786 12.3381 15.501 11.938L22.003 5.432ZM12 7C12.7957 7 13.5587 7.31607 14.1213 7.87868C14.684 8.44129 15 9.20435 15 10C15 10.7956 14.684 11.5587 14.1213 12.1213C13.5587 12.6839 12.7957 13 12 13C11.2044 13 10.4413 12.6839 9.8787 12.1213C9.31609 11.5587 9.00002 10.7956 9.00002 10C9.00002 9.20435 9.31609 8.44129 9.8787 7.87868C10.4413 7.31607 11.2044 7 12 7ZM7.55902 4L1.99902 9.56V7.438L5.43902 4H7.55902ZM21.057 4L15.909 9.149C15.794 8.61974 15.5721 8.11953 15.257 7.679L18.935 4H21.057ZM16.559 4L14.015 6.544C13.5251 6.25777 12.9795 6.07978 12.415 6.022L14.438 4H16.559Z" fill="white"/>
</svg>
