<svg width="24" height="24" viewBox="0 0 24 24" fill="none" xmlns="http://www.w3.org/2000/svg">
<path d="M16 16.25C16 17.112 15.6576 17.9386 15.0481 18.5481C14.4386 19.1576 13.612 19.5 12.75 19.5H5.25C4.38805 19.5 3.5614 19.1576 2.9519 18.5481C2.34241 17.9386 2 17.112 2 16.25V7.75C2 6.88805 2.34241 6.0614 2.9519 5.4519C3.5614 4.84241 4.38805 4.5 5.25 4.5H12.75C13.612 4.5 14.4386 4.84241 15.0481 5.4519C15.6576 6.0614 16 6.88805 16 7.75V16.25ZM21.762 5.893C21.9157 6.0739 22.0001 6.3036 22 6.541V17.459C22.0001 17.65 21.9455 17.837 21.8426 17.9979C21.7398 18.1588 21.593 18.2869 21.4197 18.367C21.2464 18.4472 21.0537 18.476 20.8645 18.4501C20.6753 18.4243 20.4974 18.3447 20.352 18.221L17 15.37V8.628L20.352 5.779C20.4521 5.69387 20.5679 5.62929 20.6929 5.58894C20.8179 5.5486 20.9497 5.53328 21.0806 5.54387C21.2116 5.55445 21.3391 5.59074 21.456 5.65064C21.573 5.71055 21.6769 5.7929 21.762 5.893Z" fill="#212121"/>
</svg>
