<svg width="24" height="24" viewBox="0 0 24 24" fill="none" xmlns="http://www.w3.org/2000/svg">
<path d="M3.28015 2.21918C3.21149 2.14549 3.12869 2.08639 3.03669 2.0454C2.94469 2.0044 2.84538 1.98236 2.74468 1.98059C2.64397 1.97881 2.54394 1.99733 2.45056 2.03505C2.35717 2.07278 2.27233 2.12892 2.20112 2.20014C2.1299 2.27136 2.07375 2.35619 2.03603 2.44958C1.99831 2.54297 1.97979 2.643 1.98156 2.7437C1.98334 2.8444 2.00538 2.94372 2.04637 3.03572C2.08736 3.12771 2.14647 3.21051 2.22015 3.27918L3.78715 4.84618C3.24968 5.11713 2.79802 5.53201 2.48249 6.04458C2.16697 6.55715 1.99999 7.14728 2.00015 7.74918V16.2492C2.00015 17.1111 2.34256 17.9378 2.95206 18.5473C3.56155 19.1568 4.3882 19.4992 5.25015 19.4992H12.7502C13.4855 19.4992 14.1991 19.2499 14.7745 18.792C15.3499 18.3341 15.753 17.6947 15.9182 16.9782L20.7192 21.7802C20.8599 21.9209 21.0507 21.9999 21.2497 21.9999C21.4486 21.9999 21.6395 21.9209 21.7802 21.7802C21.9209 21.6395 21.9999 21.4487 21.9999 21.2497C21.9999 21.0507 21.9209 20.8599 21.7802 20.7192L3.28015 2.21918ZM17.0002 13.8172L21.5042 18.3222C21.6551 18.2341 21.7804 18.1079 21.8674 17.9563C21.9544 17.8047 22.0002 17.633 22.0002 17.4582V6.53918C22.0002 6.34821 21.9456 6.16122 21.8428 6.00031C21.7399 5.8394 21.5932 5.71129 21.4198 5.63115C21.2465 5.551 21.0538 5.52216 20.8646 5.54804C20.6754 5.57392 20.4976 5.65343 20.3522 5.77718L17.0002 8.62718V13.8172ZM7.68215 4.49918L16.0002 12.8172V7.74918C16.0002 6.88722 15.6577 6.06057 15.0483 5.45108C14.4388 4.84159 13.6121 4.49918 12.7502 4.49918H7.68215Z" fill="#212121"/>
</svg>
