<svg width="24" height="24" viewBox="0 0 24 24" fill="none" xmlns="http://www.w3.org/2000/svg">
<path d="M21.9491 12.9923L21.7511 14.0293C21.5671 15.0003 20.6591 15.6523 19.6311 15.5533L17.5841 15.3553C16.6931 15.2693 15.9331 14.6353 15.7061 13.7893L15.0751 11.4343C14.1401 11.0513 13.1101 10.8763 11.9851 10.9083C10.9016 10.932 9.83388 11.1727 8.8451 11.6163L8.4531 13.8213C8.3051 14.6573 7.6161 15.2803 6.7431 15.3683L4.7081 15.5723C3.6921 15.6743 2.7191 15.0283 2.4311 14.0623L2.1211 13.0243C1.8131 11.9933 2.0881 10.9073 2.8421 10.1743C4.6231 8.44433 7.5921 7.57633 11.7491 7.57033C15.9131 7.56533 18.9741 8.42733 20.9341 10.1583C21.7591 10.8863 22.1441 11.9643 21.9491 12.9923Z" fill="#A22525"/>
</svg>
