<svg width="24" height="24" viewBox="0 0 24 24" fill="none" xmlns="http://www.w3.org/2000/svg">
<path d="M3.28015 2.21918C3.21149 2.14549 3.12869 2.08639 3.03669 2.0454C2.94469 2.0044 2.84538 1.98236 2.74468 1.98059C2.64397 1.97881 2.54394 1.99733 2.45056 2.03505C2.35717 2.07278 2.27233 2.12892 2.20112 2.20014C2.1299 2.27136 2.07375 2.35619 2.03603 2.44958C1.99831 2.54297 1.97979 2.643 1.98156 2.7437C1.98334 2.8444 2.00538 2.94372 2.04637 3.03572C2.08736 3.12771 2.14647 3.21051 2.22015 3.27918L8.00015 9.05918V11.9992C8.00007 12.7262 8.19814 13.4395 8.57306 14.0624C8.94798 14.6853 9.48557 15.1942 10.1281 15.5345C10.7705 15.8748 11.4936 16.0335 12.2195 15.9936C12.9455 15.9537 13.6468 15.7168 14.2482 15.3082L15.3942 16.4542C14.4872 17.1342 13.3837 17.501 12.2502 17.4992H11.7502L11.5342 17.4952C10.1802 17.4394 8.90031 16.8623 7.96209 15.8846C7.02387 14.9069 6.50004 13.6042 6.50015 12.2492V11.7492L6.49315 11.6472C6.46725 11.4589 6.37086 11.2875 6.22345 11.1676C6.07605 11.0477 5.88862 10.9882 5.69903 11.0012C5.50945 11.0141 5.33185 11.0985 5.20213 11.2374C5.0724 11.3762 5.00021 11.5592 5.00015 11.7492V12.2492L5.00415 12.4852C5.06217 14.1472 5.7317 15.7293 6.88436 16.9281C8.03703 18.1269 9.59167 18.858 11.2502 18.9812V21.2492L11.2572 21.3512C11.2831 21.5394 11.3794 21.7108 11.5269 21.8307C11.6743 21.9507 11.8617 22.0102 12.0513 21.9972C12.2409 21.9843 12.4185 21.8998 12.5482 21.761C12.6779 21.6221 12.7501 21.4392 12.7502 21.2492L12.7512 18.9812C14.1075 18.8821 15.4019 18.3737 16.4632 17.5232L20.7192 21.7792C20.8605 21.9159 21.05 21.9916 21.2466 21.9899C21.4433 21.9883 21.6314 21.9095 21.7705 21.7705C21.9096 21.6315 21.9886 21.4435 21.9904 21.2468C21.9922 21.0502 21.9167 20.8607 21.7802 20.7192L3.28015 2.21918ZM17.1962 14.0132L18.3422 15.1592C18.7766 14.2507 19.0015 13.2562 19.0002 12.2492V11.7492L18.9932 11.6472C18.9673 11.4589 18.8709 11.2875 18.7235 11.1676C18.576 11.0477 18.3886 10.9882 18.199 11.0012C18.0095 11.0141 17.8319 11.0985 17.7021 11.2374C17.5724 11.3762 17.5002 11.5592 17.5002 11.7492V12.2492L17.4962 12.4652C17.4749 12.9934 17.3738 13.5153 17.1962 14.0132ZM8.13815 4.95518L15.9302 12.7472C15.9762 12.5052 16.0002 12.2552 16.0002 11.9992V5.99918C16.0007 5.0291 15.6488 4.09187 15.0098 3.36198C14.3708 2.6321 13.4883 2.15929 12.5267 2.03159C11.5651 1.9039 10.5898 2.13002 9.78246 2.66785C8.97513 3.20568 8.39076 4.01857 8.13815 4.95518Z" fill="#212121"/>
</svg>
