<svg width="24" height="24" viewBox="0 0 24 24" fill="none" xmlns="http://www.w3.org/2000/svg">
<path d="M11.998 3.99617V10.2492C11.998 10.4481 12.077 10.6389 12.2177 10.7795C12.3583 10.9202 12.5491 10.9992 12.748 10.9992C12.9469 10.9992 13.1377 10.9202 13.2783 10.7795C13.419 10.6389 13.498 10.4481 13.498 10.2492V5.22217C13.498 4.98317 13.702 4.74717 13.996 4.74517C14.1279 4.75081 14.2528 4.80572 14.3461 4.89905C14.4395 4.99237 14.4944 5.11731 14.5 5.24917V12.7492C14.5 12.8993 14.5451 13.0459 14.6294 13.1701C14.7137 13.2943 14.8334 13.3904 14.9728 13.4458C15.1123 13.5013 15.2653 13.5137 15.4118 13.4813C15.5584 13.4489 15.6919 13.3733 15.795 13.2642L15.799 13.2612C15.8386 13.2197 15.8799 13.18 15.923 13.1422C16.0504 13.0278 16.1842 12.921 16.324 12.8222C16.676 12.5722 17.134 12.3262 17.627 12.2402C18.164 12.1462 18.674 12.2032 19.012 12.3782C19.1203 12.4284 19.2164 12.5016 19.2934 12.5928C19.3705 12.684 19.4266 12.791 19.458 12.9062L17.799 14.1532C17.7708 14.1743 17.744 14.1974 17.719 14.2222L15.545 16.3952C14.6103 17.3289 13.8326 18.4074 13.242 19.5892C12.962 20.1472 12.392 20.5002 11.767 20.5002H9.04C8.469 20.5002 7.972 20.2272 7.715 19.7872C6.978 18.5272 6 16.4992 6 14.7532V6.99917C6 6.93343 6.01297 6.86833 6.03816 6.8076C6.06335 6.74687 6.10026 6.69171 6.1468 6.64527C6.19334 6.59882 6.24857 6.56201 6.30935 6.53695C6.37013 6.51188 6.43525 6.49904 6.501 6.49917C6.791 6.49917 7.004 6.72917 7.004 6.99917V10.4992C7.004 10.6981 7.08302 10.8889 7.22367 11.0295C7.36432 11.1702 7.55509 11.2492 7.754 11.2492C7.95291 11.2492 8.14368 11.1702 8.28433 11.0295C8.42498 10.8889 8.504 10.6981 8.504 10.4992V5.24917C8.504 4.97117 8.719 4.74517 9 4.74517C9.287 4.74517 9.5 4.97017 9.5 5.24917V10.2492C9.5 10.4481 9.57902 10.6389 9.71967 10.7795C9.86032 10.9202 10.0511 10.9992 10.25 10.9992C10.4489 10.9992 10.6397 10.9202 10.7803 10.7795C10.921 10.6389 11 10.4481 11 10.2492V3.99617C11 3.72317 11.212 3.49617 11.499 3.49617C11.789 3.49617 11.998 3.71917 11.998 3.99617ZM13.987 3.24517C13.7835 3.24589 13.5812 3.27724 13.387 3.33817L13.987 3.24517ZM13.387 3.33817C13.2533 2.94401 12.9987 2.60209 12.6593 2.36112C12.3199 2.12016 11.9132 1.99244 11.497 1.99617C10.582 1.99617 9.875 2.58217 9.612 3.33717C9.41389 3.27544 9.2075 3.24441 9 3.24517C7.891 3.24517 7.104 4.10117 7.013 5.06317C6.8454 5.0202 6.67302 4.9987 6.5 4.99917C5.331 4.99917 4.5 5.95917 4.5 6.99917V14.7532C4.5 16.9332 5.671 19.2642 6.418 20.5432C6.975 21.4972 7.998 22.0002 9.039 22.0002H11.767C12.3518 22.0003 12.9251 21.8376 13.4226 21.5303C13.9202 21.223 14.3223 20.7832 14.584 20.2602C15.1019 19.2228 15.784 18.2759 16.604 17.4562L18.743 15.3202L20.7 13.8492C20.793 13.7792 20.8684 13.6886 20.9203 13.5844C20.9722 13.4803 20.9991 13.3655 20.999 13.2492C20.999 12.1872 20.468 11.4422 19.699 11.0452C18.984 10.6752 18.118 10.6312 17.367 10.7622C16.887 10.8513 16.4249 11.0185 15.999 11.2572V5.24917C15.999 4.18917 15.111 3.23917 13.986 3.24517" fill="#212121"/>
</svg>
